<?xml version="1.0" encoding="utf-8"?>
<!-- Generator: Adobe Illustrator 21.1.0, SVG Export Plug-In . SVG Version: 6.00 Build 0)  -->
<svg version="1.1" id="Layer_1" xmlns="http://www.w3.org/2000/svg" xmlns:xlink="http://www.w3.org/1999/xlink" x="0px" y="0px"
	 viewBox="0 0 150 126" style="enable-background:new 0 0 150 126;" xml:space="preserve">
<style type="text/css">
	.st0{fill:#4F5C64;}
</style>
<g>
	<path class="st0" d="M1.5,124.5v-53c0-25.4,0.2-43.8,0.4-50.8l0-1l0.8,0.6c3.1,2.3,7.6,5.9,12.2,9.5c7.4,5.9,17.3,13.7,20.9,16.5
		l7.5,5.9l16.6-25.9C67.2,14.8,72.3,7.3,74.6,4L75,3.4L75.4,4c2.3,3.3,7.3,10.8,14.7,22.3l16.6,25.9l7.5-5.9
		c3.6-2.8,13.5-10.7,20.9-16.5c4.6-3.6,9.1-7.2,12.2-9.5l0.8-0.6l0,1c0.2,7,0.3,25.4,0.3,50.8v53H1.5z M135.4,110.5V46.8
		c-1.2,0.9-3.3,2.6-3.6,2.8c-11,8.7-25.1,19.3-28.8,22l-0.4,0.3l-0.3-0.3c-0.6-0.6-2.2-2.6-4.7-6.5c-2.4-3.8-7.5-11.9-11.7-18.4
		l-1.2-1.9c-6-9.5-8.5-13.7-9.4-15.2c-1.1,1.5-4.3,6.1-12.2,18.8c-5.2,8.3-11.3,18.3-13,21L48,72.8L33.1,61.3L14.5,47.1v63.4H135.4z
		"/>
	<path class="st0" d="M75,4.3c2.4,3.4,7.6,11.2,14.7,22.3L106.7,53l7.9-6.3c3.6-2.8,13.5-10.6,20.9-16.5c5.2-4.1,9.6-7.5,12.2-9.5
		c0.2,7.5,0.3,26.5,0.3,50.8V124H2V71.5c0-24.2,0.2-43.3,0.4-50.8c2.6,2,7,5.4,12.2,9.5c7.4,5.9,17.3,13.7,20.9,16.5l7.9,6.3
		l16.9-26.4C67.4,15.5,72.6,7.7,75,4.3 M47.9,72L33.4,60.9L14,46.1V111h121.9V45.7c-0.4,0.3-4,3.1-4.4,3.5
		c-10.8,8.5-24.9,19.2-28.8,22c-0.9-1-2.5-3.1-4.6-6.4c-2.6-4.2-8.5-13.4-12.9-20.3c-8-12.5-9.8-15.8-9.8-15.8S73.2,31.2,62.8,48
		c-5.2,8.3-11.3,18.3-13,21L47.9,72 M75,2.5l-0.8,1.2C71.9,7,66.8,14.5,59.4,26L43.1,51.5L36,45.9c-3.6-2.8-13.5-10.6-20.9-16.5
		C10.6,25.8,6,22.3,3,20l-1.6-1.2l0,1.9C1.2,27.7,1,46.1,1,71.5V124v1h1h146h1v-1V71.5c0-25.4-0.2-43.8-0.3-50.8l0-1.9L147,20
		c-3.1,2.3-7.6,5.9-12.2,9.5c-7.4,5.9-17.2,13.7-20.9,16.5l-7.1,5.6L90.6,26C83.2,14.6,78.1,7,75.8,3.7L75,2.5L75,2.5z M48.2,73.5
		l0.6-0.9l1.9-3c1.7-2.7,7.9-12.6,13-21C70.7,37.2,74,32.4,75.4,30.4c1.1,1.9,3.7,6.2,9,14.5l1.2,1.9c4.1,6.5,9.3,14.6,11.7,18.4
		c2.5,4,4.1,5.9,4.7,6.6l0.6,0.6l0.7-0.5c3.7-2.6,17.8-13.3,28.8-22c0.2-0.2,1.6-1.3,2.8-2.2V110H15V48.1l17.8,13.6l14.5,11.1
		L48.2,73.5L48.2,73.5z"/>
</g>
</svg>
