<svg id="Layer_1" data-name="Layer 1" xmlns="http://www.w3.org/2000/svg" width="148" height="122.46" viewBox="0 0 148 122.46"><defs><style>.cls-1{fill:#4f5c64;}</style></defs><title>salient-vc-toolbar</title><path class="cls-1" d="M1.5,124.5v-53c0-25.4.18-43.79.35-50.76l0-1,.78.59c3.07,2.32,7.64,5.86,12.22,9.48,7.37,5.86,17.25,13.7,20.86,16.51l7.49,5.92L59.86,26.31C67.25,14.83,72.31,7.26,74.59,4L75,3.42l.41.59c2.28,3.26,7.34,10.83,14.73,22.31l16.64,25.94,7.5-5.93c3.62-2.82,13.5-10.65,20.85-16.5,4.57-3.61,9.14-7.15,12.22-9.47l.78-.59,0,1c.17,7,.35,25.38.35,50.76v53Zm133.88-14V46.76l-3.57,2.82c-11,8.7-25.07,19.32-28.8,22l-.36.26-.3-.33A44.78,44.78,0,0,1,97.68,65c-2.4-3.83-7.53-11.9-11.66-18.38l-1.21-1.9c-6-9.45-8.54-13.7-9.4-15.2-1.06,1.46-4.26,6.07-12.18,18.82-5.16,8.34-11.3,18.27-13,21L48,72.75,33.11,61.31,14.5,47.06V110.5Z" transform="translate(-1 -2.54)"/><path class="cls-1" d="M75,4.29c2.37,3.39,7.58,11.19,14.72,22.29L106.66,53l7.93-6.27c3.61-2.81,13.49-10.65,20.86-16.5,5.21-4.12,9.56-7.47,12.21-9.47.19,7.47.35,26.5.35,50.75V124H2V71.5c0-24.25.16-43.28.35-50.75,2.65,2,7,5.35,12.21,9.47,7.38,5.87,17.27,13.71,20.86,16.51L43.34,53,60.28,26.58C67.42,15.48,72.63,7.68,75,4.29M47.91,72,33.42,60.91,14,46.05V111H135.88V45.73l-4.38,3.46c-10.82,8.54-24.92,19.21-28.78,22A46,46,0,0,1,98.1,64.7c-2.64-4.21-8.5-13.41-12.87-20.28-8-12.51-9.76-15.84-9.76-15.84S73.24,31.25,62.8,48c-5.16,8.34-11.29,18.26-13,21l-1.85,3M75,2.54l-.82,1.17C71.9,7,66.83,14.55,59.44,26L43.1,51.52,36,45.94c-3.61-2.81-13.49-10.65-20.86-16.51C10.6,25.82,6,22.27,3,20L1.4,18.78l0,1.94C1.18,27.7,1,46.1,1,71.5V125H149V71.5c0-25.39-.18-43.8-.35-50.78l0-1.94L147,20c-3.08,2.32-7.65,5.86-12.22,9.48-7.36,5.85-17.23,13.68-20.85,16.5l-7.07,5.59L90.56,26C83.17,14.55,78.1,7,75.82,3.72L75,2.54ZM48.18,73.48l.58-.94,1.85-3c1.73-2.7,7.88-12.63,13-21C70.72,37.2,74,32.35,75.36,30.41c1.13,1.92,3.7,6.17,9,14.55l1.19,1.88c4.13,6.49,9.27,14.56,11.67,18.4A45.27,45.27,0,0,0,102,71.82l.6.65.72-.51c3.73-2.65,17.79-13.28,28.82-22l2.76-2.18V110H15V48.08L32.81,61.71,47.3,72.81l.88.67Z" transform="translate(-1 -2.54)"/></svg>